<?xml version="1.0" encoding="utf-8"?>
<?xml-stylesheet type="text/xsl" href="rss1.xsl"?>
<rss version="2.0" xmlns:atom="http://www.w3.org/2005/Atom" xmlns:content="http://purl.org/rss/1.0/modules/content/" xmlns:dc="http://purl.org/dc/elements/1.1/" xmlns:media="http://search.yahoo.com/mrss/">
<channel>
 <title>Getty</title>
 <link>http://www.gettyimg.com/</link>
 <atom:link href="http://www.gettyimg.com/" rel="self" type="application/rss+xml" />

 
                <item>
                <title><![CDATA[【HD Live Performances】FEED - Ashanti - Medley - Macy's Fourth of July Fireworks Spectacular (2023) BACKHAUL 1080i FLAC5.1 H.264-TrollHD]]></title>
                <link><![CDATA[https://sharemania.us/threads/ashanti-medley-macys-fourth-of-july-fireworks-spectacular-2023-backhaul-1080i-flac5-1-h-264-trollhd.224438/]]></link>
                <description><![CDATA[<article>
<blockquote class="messageText SelectQuoteContainer ugc baseHtml">
<img src="https://images2.imgbox.com/66/7e/8dQMpkZl_o.jpg" class="bbCodeImage LbImage" alt="[​IMG]" data-url="https://images2.imgbox.com/66/7e/8dQMpkZl_o.jpg" style=""> <br>
<br>
<div class="bbCodeBlock bbCodeCode">
<div class="type">Code:</div>
<pre>General
Unique ID                      : 162730483790044107514960407069675388909 (0x7A6CC04BFEA339B6969A9BF4B36E7FED)
Format                         : Matroska
Format version                 : Version 4
File size                      : 1.40 GiB
Duration                       : 6 min 1 s
Overall bit rate mode          : Variable
Overall bit rate               : 33.2 Mb/s
Encoded date                   : UTC 2023-07-13 21:48:00
Writing application            : mkvmerge v30.0.0 ('Interstellar') 64-bit
Writing library                : libebml v1.3.6 + libmatroska v1.4.9

Video
ID                             : 1
Format                         : AVC
Format/Info                    : Advanced Video Codec
Format profile                 : High@L4.1
Format settings                : 3 Ref Frames
Format settings, CABAC         : No
Format settings, Reference fra : 3 frames
Codec ID                       : V_MPEG4/ISO/AVC
Duration                       : 6 min 1 s
Bit rate mode                  : Constant
Bit rate                       : 31.3 Mb/s
Width                          : 1 920 pixels
Height                         : 1 080 pixels
Display aspect ratio           : 16:9
Frame rate mode                : Variable
Frame rate                     : 59.857 FPS
Original frame rate            : 29.970 (30000/1001) FPS
Color space                    : YUV
Chroma subsampling             : 4:2:0
Bit depth                      : 8 bits
Scan type                      : Interlaced
Scan type, store method        : Separated fields
Scan order                     : Top Field First
Bits/(Pixel*Frame)             : 0.252
Stream size                    : 1.31 GiB (94%)
Writing library                : x264 core 160 r3000
Encoding settings              : cabac=0 / ref=3 / deblock=1:0:0 / analyse=0x3:0x113 / me=hex / subme=4 / psy=1 / psy_rd=1.00:0.00 / mixed_ref=0 / me_range=16 / chroma_me=1 / trellis=1 / 8x8dct=1 / cqm=0 / deadzone=21,11 / fast_pskip=1 / chroma_qp_offset=0 / threads=16 / lookahead_threads=4 / sliced_threads=0 / nr=0 / decimate=1 / interlaced=tff / bluray_compat=0 / constrained_intra=0 / bframes=3 / b_pyramid=2 / b_adapt=1 / b_bias=0 / direct=1 / weightb=1 / open_gop=0 / weightp=0 / keyint=30 / keyint_min=3 / scenecut=0 / intra_refresh=0 / rc_lookahead=20 / rc=cbr / mbtree=1 / bitrate=31299 / ratetol=1.0 / qcomp=0.60 / qpmin=0 / qpmax=69 / qpstep=4 / vbv_maxrate=31299 / vbv_bufsize=15650 / nal_hrd=none / filler=0 / ip_ratio=1.40 / aq=1:1.00
Default                        : Yes
Forced                         : No
Color range                    : Limited
Color primaries                : BT.709
Transfer characteristics       : BT.709
Matrix coefficients            : BT.709

Audio
ID                             : 2
Format                         : FLAC
Format/Info                    : Free Lossless Audio Codec
Codec ID                       : A_FLAC
Duration                       : 6 min 1 s
Bit rate mode                  : Variable
Bit rate                       : 2 080 kb/s
Channel(s)                     : 6 channels
Channel layout                 : L R C LFE Ls Rs
Sampling rate                  : 48.0 kHz
Frame rate                     : 11.719 FPS (4096 SPF)
Bit depth                      : 16 bits
Compression mode               : Lossless
Delay relative to video        : 24 ms
Stream size                    : 89.7 MiB (6%)
Writing library                : libFLAC 1.3.2 (UTC 2019-08-04)
Language                       : English
Default                        : Yes
Forced                         : No

</pre>
</div>
<div class="bbCodeBlock bbCodeVfcHH HiddenContent">
<div class="attribution type">Hidden Content:</div>
<blockquote>You must either reply or click 'Like' to see the hidden information contained here.</blockquote>
</div><span style="color: rgb(191, 191, 191)">Cutted with:</span><br>
<b>MKVToolNix GUI<br>
<br>
<img src="styles/default/xenforo/smilies/super_man-48.png" class="mceSmilie" alt=":super:" title="Super Man    :super:"><img src="styles/default/xenforo/smilies/super_man-48.png" class="mceSmilie" alt=":super:" title="Super Man    :super:"><img src="styles/default/xenforo/smilies/super_man-48.png" class="mceSmilie" alt=":super:" title="Super Man    :super:"></b>
<div class="messageTextEndMarker">&nbsp;</div>
</blockquote>
</article>]]></description>
                <author><![CDATA[Dream66]]></author>
                </item>

                
                <item>
                <title><![CDATA[【Interviews / TV shows / Others】SDTV - Céline Dion - Des Fleurs Sur La Neige (1991) [PT-BR Subs]]]></title>
                <link><![CDATA[https://sharemania.us/threads/c%C3%A9line-dion-des-fleurs-sur-la-neige-1991-pt-br-subs.224439/]]></link>
                <description><![CDATA[<article>
<blockquote class="messageText SelectQuoteContainer ugc baseHtml">
<img src="https://www.themoviedb.org/t/p/w500/v2jAck89g1HxVNwKJSBb7b67MKw.jpg" class="bbCodeImage LbImage" alt="[​IMG]" data-url="https://www.themoviedb.org/t/p/w500/v2jAck89g1HxVNwKJSBb7b67MKw.jpg" style=""> <br>
<div class="bbCodeBlock bbCodeQuote">
<aside>
<blockquote class="quoteContainer"><div class="quote"><span style="font-family: 'Georgia'"><i>Des Fleurs Sur La Neige</i> é uma minissérie Quebequense em quatro episódios de 47 minutos escrita por Jean-Paul LeBourhis e Jean Lepage, baseada no romance de mesmo nome, e transmitida de 7 a 28 de março de 1991 na Radio-Canada Television.</span></div><div class="quoteExpand">Click to expand...</div></blockquote>
</aside>
</div><ul>
<li><b>Áudio: Francês (Quebéc)</b></li>
<li><b>Legendas: Português Brasileiro</b></li>
</ul><img src="https://i.imgur.com/1jPzKbv.jpg" class="bbCodeImage LbImage" alt="[​IMG]" data-url="https://i.imgur.com/1jPzKbv.jpg" style=""> <br>
<br>
<div class="bbCodeBlock bbCodeVfcHH HiddenContent">
<div class="attribution type">Hidden Content:</div>
<blockquote>You must either reply or click 'Like' to see the hidden information contained here.</blockquote>
</div><span style="font-size: 10px">Créditos á "Celine Dion em portunhol" no Youtube por ter legendado e traduzido</span>
<div class="messageTextEndMarker">&nbsp;</div>
</blockquote>
</article>]]></description>
                <author><![CDATA[Giulya]]></author>
                </item>

                </channel></rss>